HIERARCHY
ROOT Hips
{
	OFFSET 0.000000 0.000000 0.000000
	CHANNELS 6 Xposition Yposition Zposition Zrotation Xrotation Yrotation
	JOINT LeftUpLeg
	{
		OFFSET 3.629690 0.000000 0.000000
		CHANNELS 3 Zrotation Xrotation Yrotation
		JOINT LeftLeg
		{
			OFFSET 0.000000 -17.030560 0.000000
			CHANNELS 3 Zrotation Xrotation Yrotation
			JOINT LeftFoot
			{
				OFFSET 0.000000 -15.712090 0.000000
				CHANNELS 3 Zrotation Xrotation Yrotation
				JOINT LeftToeBase
				{
					OFFSET 0.000000 -1.618809 6.041470
					CHANNELS 3 Zrotation Xrotation Yrotation
					End Site
					{
						OFFSET 0.000000 0.000000 2.952750
					}
				}
			}
		}
	}
	JOINT RightUpLeg
	{
		OFFSET -3.629690 0.000000 0.000000
		CHANNELS 3 Zrotation Xrotation Yrotation
		JOINT RightLeg
		{
			OFFSET 0.000000 -17.030560 0.000000
			CHANNELS 3 Zrotation Xrotation Yrotation
			JOINT RightFoot
			{
				OFFSET 0.000000 -15.712090 0.000000
				CHANNELS 3 Zrotation Xrotation Yrotation
				JOINT RightToeBase
				{
					OFFSET 0.000000 -1.618809 6.041470
					CHANNELS 3 Zrotation Xrotation Yrotation
					End Site
					{
						OFFSET 0.000000 0.000000 2.952750
					}
				}
			}
		}
	}
	JOINT Spine
	{
		OFFSET 0.000000 0.039370 0.000000
		CHANNELS 3 Zrotation Xrotation Yrotation
		JOINT Spine1
		{
			OFFSET 0.000000 7.224080 0.000000
			CHANNELS 3 Zrotation Xrotation Yrotation
			JOINT Neck
			{
				OFFSET 0.000000 10.285650 0.000000
				CHANNELS 3 Zrotation Xrotation Yrotation
				JOINT Head
				{
					OFFSET 0.000000 6.808250 0.000000
					CHANNELS 3 Zrotation Xrotation Yrotation
					End Site
					{
						OFFSET 0.000000 4.527550 0.000000
					}
				}
			}
			JOINT LeftShoulder
			{
				OFFSET 0.000000 10.285650 0.000000
				CHANNELS 3 Zrotation Xrotation Yrotation
				JOINT LeftArm
				{
					OFFSET 7.175730 -0.000031 0.000000
					CHANNELS 3 Zrotation Xrotation Yrotation
					JOINT LeftForeArm
					{
						OFFSET 9.778290 -0.000040 0.000000
						CHANNELS 3 Zrotation Xrotation Yrotation
						JOINT LeftHand
						{
							OFFSET 9.419470 -0.000031 0.000000
							CHANNELS 3 Zrotation Xrotation Yrotation
							JOINT LeftHandThumb
							{
								OFFSET 0.000000 0.000000 0.000000
								CHANNELS 3 Zrotation Xrotation Yrotation
								End Site
								{
									OFFSET 0.000000 0.000000 3.937000
								}
							}
							JOINT L_Wrist_End
							{
								OFFSET 3.937000 -0.000010 0.000000
								CHANNELS 3 Zrotation Xrotation Yrotation
								End Site
								{
									OFFSET 0.000000 0.100000 0.000000
								}
							}
						}
					}
				}
			}
			JOINT RightShoulder
			{
				OFFSET 0.000000 10.285650 0.000000
				CHANNELS 3 Zrotation Xrotation Yrotation
				JOINT RightArm
				{
					OFFSET -7.175730 -0.000031 0.000000
					CHANNELS 3 Zrotation Xrotation Yrotation
					JOINT RightForeArm
					{
						OFFSET -9.778290 -0.000040 0.000000
						CHANNELS 3 Zrotation Xrotation Yrotation
						JOINT RightHand
						{
							OFFSET -9.419470 -0.000031 0.000000
							CHANNELS 3 Zrotation Xrotation Yrotation
							JOINT RightHandThumb
							{
								OFFSET 0.000000 0.000000 0.000000
								CHANNELS 3 Zrotation Xrotation Yrotation
								End Site
								{
									OFFSET 0.000000 0.000000 3.937000
								}
							}
							JOINT R_Wrist_End
							{
								OFFSET -5.393690 -0.000019 0.000000
								CHANNELS 3 Zrotation Xrotation Yrotation
								End Site
								{
									OFFSET 0.000000 0.100000 0.000000
								}
							}
						}
					}
				}
			}
		}
	}
}
MOTION
Frames: 9
Frame Time: 0.038462
0.000000 35.000000 0.000000 0.629326 -2.033750 -29.374704 -0.532418 -27.286891 -11.042509 -0.222051 40.249259 0.196342 -18.775996 9.994037 -4.006285 -0.009886 -14.243759 0.032787 4.926817 4.471653 -8.774999 -0.172715 31.872803 -0.070925 0.494873 -7.263177 2.746104 -0.552468 -21.081681 -0.255122 -2.424641 -18.541942 0.458111 -2.383624 20.045363 -3.630586 4.102417 24.679097 16.772455 -14.143590 -23.182791 17.462098 17.763437 12.788003 -10.920826 -74.251349 22.817525 9.670909 -0.541054 -0.358447 -44.385601 39.768024 3.627764 -0.638615 -0.150657 -0.094150 -0.201449 -0.335177 -0.113580 0.378105 -5.581633 8.695469 -5.277064 74.183790 -32.283219 -13.966564 0.039240 0.004073 75.079668 -45.031864 -0.998569 -15.243730 0.176547 -0.139625 0.096014 -0.228371 -0.018118 0.161356
0.000000 35.000000 0.000000 -0.287413 -1.115251 -37.977191 3.059801 -29.062432 -6.112274 -0.309183 45.545990 0.323106 -20.349994 7.668861 -1.308335 0.121679 -14.343239 0.120928 5.282104 5.229384 -3.990372 -0.145177 28.332688 -0.106767 -1.756385 -9.222967 5.758536 -0.616380 -19.196898 -0.044118 -1.023845 -18.756063 2.667294 -0.871744 19.368203 -1.579280 2.534379 24.462242 19.698814 -14.832792 -23.005144 17.714262 17.574951 14.619825 -9.857314 -76.298845 24.620371 10.419485 -0.423056 -0.231572 -43.831368 42.784942 2.515312 -2.068530 0.101532 -0.209197 -0.300285 -0.412350 -0.249763 0.394838 -7.851209 5.482891 -2.007260 69.958147 -33.411715 -12.078198 0.066161 0.123276 82.576793 -44.040127 3.419090 -14.341884 0.153757 0.052582 0.105548 -0.501042 -0.143290 0.053355
0.000000 35.000000 0.000000 0.008561 -1.813310 -48.303534 3.493956 -25.769417 -2.364126 -0.260128 42.906256 0.231853 -19.757441 5.330359 2.974936 0.052794 -14.349059 0.293063 2.487266 5.917503 1.479579 0.092438 26.619099 -0.080090 -2.833852 -9.689559 8.958149 -0.424113 -20.387443 0.377606 1.420846 -19.382392 6.143503 -1.306808 20.209407 0.740005 0.125555 24.594059 23.138026 -14.604139 -23.352555 17.685590 16.396457 17.313607 -7.530505 -80.012549 28.838661 11.628681 -0.032332 -0.096405 -41.314091 41.199970 2.598200 -3.865584 -0.000480 -0.205311 -0.112189 -0.295905 -0.320788 0.371541 -10.110990 3.092261 1.367264 68.885011 -29.515212 -7.896149 0.073665 0.050169 89.534871 -43.516152 7.215646 -10.688118 0.074191 0.161781 0.152158 -0.410725 -0.178789 0.071366
0.000000 35.000000 0.000000 0.559528 -3.630391 -58.326097 1.540097 -19.315649 -0.067346 -0.041627 34.272140 0.058813 -16.152270 2.217784 8.826008 0.053660 -13.808565 0.436379 -1.304128 6.172894 5.775259 0.309230 29.110122 -0.052443 -2.163665 -7.535837 11.800291 -0.178727 -22.898350 0.597023 4.177849 -20.175187 10.032264 -3.531920 21.191368 2.795785 -2.961771 25.274980 27.411794 -13.370052 -23.729385 17.872626 14.529211 20.206689 -4.319370 -84.405521 30.184902 13.138801 0.144484 -0.060358 -36.513498 39.459914 2.012040 -5.633866 -0.305557 -0.132808 0.118818 -0.267866 -0.382514 0.097937 -11.980336 1.423253 4.914707 69.642704 -21.456609 -3.142070 0.055418 0.114036 93.082766 -44.343720 11.479129 -6.591086 0.114575 0.178306 0.064632 -0.380439 -0.164704 0.156270
0.000000 35.000000 0.000000 0.733750 -6.965297 -66.677674 -2.276514 -12.601303 1.668751 0.090438 26.002193 -0.084099 -13.510835 0.951921 14.270020 -0.039724 -13.469135 0.485939 -6.807884 4.336402 7.141241 0.450364 36.329689 -0.060419 -0.752647 -3.697466 12.956438 -0.024629 -24.888587 0.747769 7.088504 -19.910194 14.033192 -7.482554 21.930102 4.553469 -6.686084 26.205879 32.180031 -12.257343 -24.049824 17.473986 11.767186 22.062132 -0.847510 -87.289848 26.248375 15.204960 0.344633 -0.035116 -31.608229 38.703571 0.118696 -6.893716 -0.616746 -0.061923 0.379471 -0.223119 -0.336413 -0.031889 -13.638065 0.511739 8.029900 71.900382 -11.307475 0.893227 0.073955 0.000305 92.811957 -44.612436 15.885277 -2.808282 0.075126 0.209858 0.065867 -0.273774 -0.030173 0.186895
0.000000 35.000000 0.000000 -0.058750 -11.377532 -72.676289 -6.992392 -7.547480 2.092973 0.124187 22.260221 -0.112060 -12.220284 -0.167756 17.095458 -0.164549 -13.655366 0.462774 -13.002791 0.257415 5.191932 0.507941 48.622616 -0.067071 1.435774 0.832310 11.742572 0.018539 -23.247870 0.714552 8.857386 -18.700507 16.779268 -11.262781 22.666861 5.775584 -9.927303 27.390791 36.339549 -12.064513 -24.065697 17.272393 8.989310 22.260536 1.565781 -87.752699 16.390176 17.286263 0.470547 -0.062009 -28.818899 40.443700 -4.217157 -7.014123 -0.874113 0.022904 0.505847 -0.290611 -0.289243 -0.118050 -14.444813 0.319001 10.002706 74.628408 -2.274146 3.303585 0.063884 -0.242958 88.291915 -43.344489 19.234308 -0.560732 -0.021857 0.185192 0.096571 -0.145751 0.148519 0.217013
0.000000 35.000000 0.000000 -1.418583 -15.608367 -74.512390 -11.317713 -4.898368 2.497167 0.083639 23.581216 0.020093 -11.595670 -1.937057 17.107984 -0.271910 -14.290010 0.274025 -18.472769 -4.565926 1.010849 0.316954 64.008471 0.019375 3.516105 2.661932 8.128982 -0.029929 -17.978877 0.429807 9.366622 -17.568025 18.248268 -14.490858 23.788622 6.674592 -11.861748 28.254616 38.981650 -12.283266 -23.353133 16.740439 6.681076 20.406429 2.680428 -84.496750 1.538495 17.150479 0.350777 -0.162636 -29.055707 45.094385 -12.106956 -4.578019 -0.867434 0.070512 0.412100 -0.478344 -0.193407 -0.020578 -14.258174 0.931354 10.575603 78.230724 4.140050 4.003634 -0.040930 -0.435875 80.055811 -41.209205 19.876940 -0.562022 -0.089141 0.156915 0.166576 -0.165151 0.205279 0.178385
0.000000 35.000000 0.000000 -1.720572 -18.817190 -71.738832 -14.315516 -4.097382 3.370383 0.071103 27.168334 0.128479 -11.525522 -2.885061 14.409575 -0.300080 -14.761918 0.104611 -21.451232 -8.453747 -2.140671 -0.297325 76.556949 0.458703 4.044569 0.474634 3.869781 -0.040851 -12.671491 0.345867 9.469814 -17.577052 18.680527 -17.877208 26.088632 7.302369 -11.781589 28.172164 38.933900 -11.831232 -22.525275 15.789800 5.011533 16.471206 1.493542 -78.573949 -14.346945 13.054120 0.011271 -0.227349 -32.194197 52.304432 -20.781665 1.388293 -0.654663 0.102229 0.169115 -0.453915 -0.160260 0.201883 -13.202018 2.513188 9.561052 81.803048 8.653998 3.062021 -0.075550 -0.281436 67.842523 -38.204572 17.396817 -2.443924 -0.065500 0.106162 0.136533 -0.256951 0.112236 0.078697
0.000000 35.000000 0.000000 -0.680955 -20.947553 -65.346408 -15.172320 -4.062764 3.116121 -0.023199 29.670179 0.173504 -11.930869 -2.092648 9.355211 -0.310363 -15.054573 0.033996 -21.479510 -10.868725 -2.232813 -0.646602 83.005574 0.733309 3.792523 -3.850812 2.564609 -0.057643 -10.669161 0.496385 9.396502 -18.061323 18.037355 -20.772372 28.368066 7.440791 -10.433696 27.505873 37.853286 -10.609878 -22.106759 15.239350 4.240451 12.353190 -0.672347 -73.179374 -27.233650 7.477011 0.017549 -0.225164 -35.869371 57.194264 -25.607233 6.291541 -0.567486 0.018607 0.186985 -0.115576 -0.174092 0.448932 -11.554472 4.157194 8.247518 84.678698 10.675681 1.033554 -0.379583 -0.223166 54.394751 -35.121669 13.204178 -4.836050 0.029499 0.128291 0.147118 -0.271923 -0.043117 0.075879
